<svg width="81" height="81" viewBox="0 0 81 81" fill="none" xmlns="http://www.w3.org/2000/svg">
<circle cx="40.5" cy="40.5" r="40" fill="#D9D9D9" stroke="black"/>
<rect x="23" y="42.0001" width="12" height="30" rx="6" fill="black"/>
<path d="M21.7939 18.8974C20.251 15.9648 21.3775 12.3367 24.31 10.7937V10.7937C27.2426 9.25074 30.8707 10.3772 32.4137 13.3098L40.5232 28.7228C42.0662 31.6553 40.9397 35.2835 38.0071 36.8264V36.8264C35.0746 38.3694 31.4464 37.2429 29.9035 34.3104L21.7939 18.8974Z" fill="black"/>
<path d="M46.3193 64.9088C44.7764 61.9763 45.9029 58.3481 48.8354 56.8052V56.8052C51.768 55.2622 55.3961 56.3887 56.9391 59.3213L59.2762 63.7632C60.8192 66.6958 59.6927 70.3239 56.7601 71.8669V71.8669C53.8276 73.4098 50.1994 72.2833 48.6565 69.3508L46.3193 64.9088Z" fill="black"/>
<path d="M32.5141 52.746L32.2471 52.427L28.5445 48.0018C26.8943 46.0296 28.3232 43.0324 30.8823 43.0462C33.4025 43.0598 36.595 43.0548 39.3157 42.9812C40.6774 42.9443 41.9094 42.8905 42.8751 42.8144C43.3587 42.7764 43.7638 42.7336 44.0792 42.6867C44.4128 42.6371 44.5758 42.5924 44.6233 42.5738C46.4848 41.8055 48.2454 40.8326 49.4194 39.636L49.4249 39.6304L49.4306 39.6249C50.6414 38.4291 51.5373 37.0412 52.1246 35.453C52.6664 33.8657 52.8856 32.1194 52.7663 30.2019C52.6246 27.9247 52.1291 26.0196 51.312 24.458C50.4352 22.8746 49.3052 21.5939 47.9218 20.6009C46.5276 19.6002 44.9037 18.8754 43.0358 18.4359C41.1535 18.0317 39.119 17.8936 36.9274 18.03C35.7257 18.1048 34.5292 18.2735 33.3374 18.5364C32.1799 18.7917 31.076 19.1901 30.0235 19.7322L30.0095 19.7394L29.9953 19.7461C28.9107 20.2622 27.7991 20.5017 26.6739 20.4304C25.4641 20.3596 24.4023 19.9065 23.5338 19.0769C22.3668 17.9878 21.7824 16.6654 22.0708 15.1768C22.3072 13.765 23.2161 12.7419 24.5668 12.0926C25.7819 11.4889 27.0484 10.9639 28.3657 10.5171L28.3751 10.5139L28.3846 10.5109C29.6545 10.1081 30.9526 9.78445 32.2785 9.53969C33.6119 9.25389 34.974 9.06798 36.3643 8.98146C39.7986 8.76775 43.1051 9.02676 46.2797 9.76327L46.2838 9.76424C49.4185 10.5056 52.2795 11.7156 54.8592 13.3976L54.8672 13.4028L54.8672 13.4028C57.425 15.1054 59.4997 17.2959 61.0853 19.9643L61.0884 19.9694L61.0884 19.9694C62.6924 22.7061 63.5929 25.897 63.818 29.5142C64.0142 32.6683 63.5643 35.6368 62.4565 38.4058L62.4538 38.4127L62.4509 38.4195C61.3001 41.1772 59.6127 43.5965 57.397 45.6715L32.5141 52.746ZM32.5141 52.746L32.9285 52.7816L33.0141 51.7853M32.5141 52.746L33.0141 51.7853M33.0141 51.7853C32.9285 52.7816 32.9286 52.7816 32.9286 52.7816L32.9289 52.7816L32.9296 52.7817L32.932 52.7819L32.9412 52.7827L32.9762 52.7856L33.1089 52.7965C33.2237 52.8057 33.3894 52.8188 33.5945 52.834C34.0044 52.8644 34.5725 52.9036 35.2059 52.9388C36.4565 53.0084 38.0165 53.0659 39.1034 52.9982C42.8214 52.7669 46.2408 52.0092 49.3523 50.7146C52.4554 49.4636 55.1414 47.7847 57.3969 45.6716L33.0141 51.7853Z" fill="black" stroke="black" stroke-width="2"/>
</svg>
