<svg width="416" height="333" viewBox="0 0 416 333" fill="none" xmlns="http://www.w3.org/2000/svg">
<g clip-path="url(#clip0_212_60)">
<g filter="url(#filter0_ddd_212_60)">
<path d="M87.8493 137.235L26.0872 106.588C25.4929 106.293 24.7814 106.648 24.6597 107.3L16.059 153.392C16.0206 153.598 16.0477 153.811 16.1366 154L36.3426 197.098C36.6508 197.755 37.5349 197.876 38.0074 197.324L88.1642 138.781C88.5882 138.286 88.4331 137.525 87.8493 137.235Z" fill="#E1E8EA"/>
<g style="mix-blend-mode:overlay">
<path d="M25.8649 107.036L25.8649 107.036L87.6268 137.683C87.9191 137.828 87.9963 138.208 87.7845 138.456L37.6277 196.999L37.6275 196.999C37.3917 197.274 36.9496 197.215 36.7952 196.886L16.5893 153.788L16.589 153.787C16.545 153.694 16.5312 153.587 16.5505 153.484C16.5505 153.484 16.5505 153.484 16.5505 153.484L25.1512 107.392C25.212 107.066 25.5677 106.888 25.8649 107.036Z" fill="#E1E8EA"/>
<path d="M25.8649 107.036L25.8649 107.036L87.6268 137.683C87.9191 137.828 87.9963 138.208 87.7845 138.456L37.6277 196.999L37.6275 196.999C37.3917 197.274 36.9496 197.215 36.7952 196.886L16.5893 153.788L16.589 153.787C16.545 153.694 16.5312 153.587 16.5505 153.484C16.5505 153.484 16.5505 153.484 16.5505 153.484L25.1512 107.392C25.212 107.066 25.5677 106.888 25.8649 107.036Z" stroke="#36474A"/>
</g>
<path d="M25.865 107.036L87.627 137.683C87.9189 137.828 87.9965 138.209 87.7845 138.456L37.6277 196.999C37.3915 197.274 36.9494 197.214 36.7953 196.886L16.5893 153.788C16.5448 153.693 16.5313 153.587 16.5505 153.484L25.1512 107.392C25.2121 107.066 25.5678 106.888 25.865 107.036Z" stroke="#36474A"/>
</g>
<g filter="url(#filter1_ddd_212_60)">
<path d="M88.5177 137.797L164.702 110.957C165.343 110.732 166.017 111.197 166.034 111.876L167.978 190.072C167.99 190.579 167.621 191.016 167.119 191.087L55.7913 206.958C55.6011 206.986 55.4072 206.957 55.2326 206.877L37.2125 198.596C36.6065 198.317 36.4378 197.535 36.8753 197.031L88.0951 138.084C88.2087 137.953 88.3543 137.854 88.5177 137.797Z" fill="#E1E8EA"/>
<g style="mix-blend-mode:overlay">
<path d="M88.6824 138.269L88.6838 138.269L164.868 111.429C165.189 111.316 165.526 111.549 165.534 111.889L167.478 190.084C167.484 190.339 167.299 190.557 167.049 190.592L167.048 190.592L55.7207 206.463L55.7185 206.464C55.6262 206.477 55.5298 206.463 55.4409 206.423L37.4216 198.142C37.1182 198.002 37.0339 197.611 37.2529 197.359L88.4725 138.412L88.4728 138.412C88.5296 138.346 88.6019 138.297 88.6824 138.269Z" fill="#E1E8EA"/>
<path d="M88.6824 138.269L88.6838 138.269L164.868 111.429C165.189 111.316 165.526 111.549 165.534 111.889L167.478 190.084C167.484 190.339 167.299 190.557 167.049 190.592L167.048 190.592L55.7207 206.463L55.7185 206.464C55.6262 206.477 55.5298 206.463 55.4409 206.423L37.4216 198.142C37.1182 198.002 37.0339 197.611 37.2529 197.359L88.4725 138.412L88.4728 138.412C88.5296 138.346 88.6019 138.297 88.6824 138.269Z" stroke="#36474A"/>
</g>
<path d="M88.6837 138.268L164.868 111.429C165.189 111.316 165.526 111.548 165.534 111.888L167.478 190.085C167.484 190.338 167.3 190.556 167.049 190.592L55.7207 206.463C55.6256 206.477 55.5286 206.463 55.4413 206.423L37.4212 198.141C37.1182 198.002 37.0338 197.611 37.2526 197.359L88.4725 138.412C88.5293 138.347 88.6021 138.297 88.6837 138.268Z" stroke="#36474A"/>
</g>
<g filter="url(#filter2_ddd_212_60)">
<path d="M165.603 110.39L104.531 34.829C104.168 34.3799 103.501 34.3307 103.076 34.7216L25.5712 106.015C25.0549 106.49 25.1753 107.335 25.8038 107.647L87.6258 138.314C87.8654 138.433 88.1425 138.451 88.3954 138.364L165.15 111.964C165.806 111.739 166.039 110.93 165.603 110.39Z" fill="#E1E8EA"/>
<g style="mix-blend-mode:overlay">
<path d="M87.848 137.866L87.8482 137.866C87.968 137.926 88.1064 137.935 88.2328 137.891L164.988 111.491L164.988 111.491C165.315 111.379 165.432 110.974 165.214 110.704L87.848 137.866ZM87.848 137.866L26.0261 107.199C26.0261 107.199 26.026 107.199 26.026 107.199C25.7116 107.043 25.6516 106.62 25.9097 106.383L103.415 35.0896C103.415 35.0896 103.415 35.0895 103.415 35.0895C103.627 34.8941 103.961 34.9187 104.142 35.1433L165.214 110.704L87.848 137.866Z" fill="#E1E8EA"/>
<path d="M87.848 137.866L87.8482 137.866C87.968 137.926 88.1064 137.935 88.2328 137.891L164.988 111.491L164.988 111.491C165.315 111.379 165.432 110.974 165.214 110.704L87.848 137.866ZM87.848 137.866L26.0261 107.199C26.0261 107.199 26.026 107.199 26.026 107.199C25.7116 107.043 25.6516 106.62 25.9097 106.383L103.415 35.0896C103.415 35.0896 103.415 35.0895 103.415 35.0895C103.627 34.8941 103.961 34.9187 104.142 35.1433L165.214 110.704L87.848 137.866Z" stroke="#36474A"/>
</g>
<path d="M104.142 35.1432L165.214 110.704C165.432 110.974 165.316 111.379 164.988 111.491L88.2327 137.891C88.1063 137.935 87.9677 137.926 87.8479 137.866L26.0259 107.199C25.7117 107.043 25.6514 106.62 25.9096 106.383L103.415 35.0895C103.627 34.8941 103.961 34.9187 104.142 35.1432Z" stroke="#36474A"/>
</g>
<g filter="url(#filter3_ddd_212_60)">
<path d="M229.434 8H180.188C179.364 8 178.894 8.9417 179.389 9.60081L266.892 126.025C267.369 126.66 268.359 126.513 268.631 125.767L305.572 24.2734C305.791 23.6706 305.394 23.0201 304.758 22.9393L250.172 16.0082C250.09 15.9978 250.01 15.9774 249.933 15.9474L229.798 8.06875C229.682 8.02332 229.558 8 229.434 8Z" fill="#E1E8EA"/>
<g style="mix-blend-mode:overlay">
<path d="M267.291 125.725L267.292 125.725C267.53 126.042 268.025 125.969 268.161 125.596L267.291 125.725ZM267.291 125.725L179.789 9.30055C179.789 9.30053 179.788 9.30043 179.788 9.3004C179.541 8.97041 179.777 8.5 180.188 8.5H229.434C229.495 8.5 229.558 8.51168 229.615 8.53432L229.616 8.53437L249.751 16.413L249.751 16.4133M267.291 125.725L249.751 16.4133M249.751 16.4133C249.866 16.458 249.986 16.4886 250.109 16.5042C250.109 16.5042 250.109 16.5042 250.109 16.5042L304.695 23.4353C305.013 23.4757 305.211 23.8009 305.102 24.1024L249.751 16.4133ZM305.102 24.1027L268.161 125.596L305.102 24.1027Z" fill="#E1E8EA"/>
<path d="M267.291 125.725L267.292 125.725C267.53 126.042 268.025 125.969 268.161 125.596L267.291 125.725ZM267.291 125.725L179.789 9.30055C179.789 9.30053 179.788 9.30043 179.788 9.3004C179.541 8.97041 179.777 8.5 180.188 8.5H229.434C229.495 8.5 229.558 8.51168 229.615 8.53432L229.616 8.53437L249.751 16.413L249.751 16.4133M267.291 125.725L249.751 16.4133M249.751 16.4133C249.866 16.458 249.986 16.4886 250.109 16.5042C250.109 16.5042 250.109 16.5042 250.109 16.5042L304.695 23.4353C305.013 23.4757 305.211 23.8009 305.102 24.1024L249.751 16.4133ZM305.102 24.1027L268.161 125.596L305.102 24.1027Z" stroke="#36474A"/>
</g>
<path d="M180.188 8.5H229.434C229.496 8.5 229.558 8.51166 229.616 8.53437L249.751 16.413C249.866 16.458 249.986 16.4886 250.109 16.5042L304.695 23.4353C305.013 23.4757 305.212 23.801 305.102 24.1024L268.161 125.596C268.025 125.969 267.53 126.042 267.291 125.725L179.789 9.30041C179.541 8.97085 179.776 8.5 180.188 8.5Z" stroke="#36474A"/>
</g>
<g filter="url(#filter4_ddd_212_60)">
<path d="M179.998 8.9968L267.043 125.057C267.578 125.771 266.979 126.776 266.096 126.646L166.962 112.045C166.427 111.966 166.051 111.475 166.115 110.937L178.205 9.47848C178.311 8.58264 179.456 8.27506 179.998 8.9968Z" fill="#E1E8EA"/>
<g style="mix-blend-mode:overlay">
<path d="M178.701 9.53723L178.701 9.53764L166.611 110.996C166.611 110.996 166.611 110.996 166.611 110.996C166.579 111.265 166.767 111.511 167.034 111.55C167.034 111.55 167.034 111.55 167.035 111.55L266.169 126.151C266.611 126.216 266.91 125.714 266.643 125.357L178.701 9.53723ZM178.701 9.53723C178.754 9.09073 179.326 8.93502 179.598 9.29697C179.598 9.297 179.598 9.29702 179.598 9.29704L266.642 125.357L178.701 9.53723Z" fill="#E1E8EA"/>
<path d="M178.701 9.53723L178.701 9.53764L166.611 110.996C166.611 110.996 166.611 110.996 166.611 110.996C166.579 111.265 166.767 111.511 167.034 111.55C167.034 111.55 167.034 111.55 167.035 111.55L266.169 126.151C266.611 126.216 266.91 125.714 266.643 125.357L178.701 9.53723ZM178.701 9.53723C178.754 9.09073 179.326 8.93502 179.598 9.29697C179.598 9.297 179.598 9.29702 179.598 9.29704L266.642 125.357L178.701 9.53723Z" stroke="#36474A"/>
</g>
<path d="M179.598 9.29674L266.643 125.357C266.91 125.714 266.611 126.216 266.17 126.151L167.035 111.55C166.767 111.511 166.58 111.265 166.612 110.996L178.701 9.53758C178.755 9.08966 179.327 8.93587 179.598 9.29674Z" stroke="#36474A"/>
</g>
<g filter="url(#filter5_ddd_212_60)">
<path d="M167.438 191.788L194.43 209.523C194.847 209.796 195.401 209.722 195.73 209.347L267.788 127.379C268.311 126.784 267.968 125.846 267.184 125.729L166.176 110.675C165.562 110.584 165.014 111.068 165.029 111.689L166.987 190.976C166.995 191.304 167.164 191.607 167.438 191.788Z" fill="#E1E8EA"/>
<g style="mix-blend-mode:overlay">
<path d="M195.354 209.017L195.354 209.017C195.19 209.204 194.913 209.242 194.703 209.105L167.713 191.371C167.713 191.371 167.713 191.371 167.713 191.371C167.574 191.279 167.49 191.127 167.486 190.964L167.486 190.964L165.528 111.677C165.528 111.677 165.528 111.677 165.528 111.677C165.521 111.366 165.795 111.124 166.102 111.17C166.102 111.17 166.102 111.17 166.102 111.17L267.11 126.224C267.502 126.282 267.674 126.751 267.412 127.049L195.354 209.017Z" fill="#E1E8EA"/>
<path d="M195.354 209.017L195.354 209.017C195.19 209.204 194.913 209.242 194.703 209.105L167.713 191.371C167.713 191.371 167.713 191.371 167.713 191.371C167.574 191.279 167.49 191.127 167.486 190.964L167.486 190.964L165.528 111.677C165.528 111.677 165.528 111.677 165.528 111.677C165.521 111.366 165.795 111.124 166.102 111.17C166.102 111.17 166.102 111.17 166.102 111.17L267.11 126.224C267.502 126.282 267.674 126.751 267.412 127.049L195.354 209.017Z" stroke="#36474A"/>
</g>
<path d="M167.711 191.37L194.704 209.105C194.912 209.242 195.189 209.204 195.354 209.017L267.411 127.049C267.673 126.751 267.501 126.282 267.11 126.224L166.102 111.17C165.795 111.124 165.521 111.366 165.528 111.677L167.486 190.964C167.49 191.128 167.574 191.28 167.711 191.37ZM167.711 191.37L167.437 191.788" stroke="#36474A"/>
</g>
<g filter="url(#filter6_ddd_212_60)">
<path d="M177.974 8.54227L104.83 34.5276C104.18 34.7584 103.954 35.5619 104.387 36.0982L165.019 111.167C165.574 111.853 166.681 111.537 166.79 110.661L179.301 9.60744C179.392 8.86931 178.675 8.29328 177.974 8.54227Z" fill="#E1E8EA"/>
<g style="mix-blend-mode:overlay">
<path d="M104.997 34.9987L104.997 34.9987C104.672 35.114 104.559 35.5155 104.776 35.7841L165.407 110.853C165.407 110.853 165.407 110.853 165.408 110.853C165.685 111.196 166.239 111.038 166.293 110.6L104.997 34.9987ZM104.997 34.9987L178.141 9.01342C178.491 8.88906 178.85 9.17654 178.804 9.54626L166.293 110.599L104.997 34.9987Z" fill="#E1E8EA"/>
<path d="M104.997 34.9987L104.997 34.9987C104.672 35.114 104.559 35.5155 104.776 35.7841L165.407 110.853C165.407 110.853 165.407 110.853 165.408 110.853C165.685 111.196 166.239 111.038 166.293 110.6L104.997 34.9987ZM104.997 34.9987L178.141 9.01342C178.491 8.88906 178.85 9.17654 178.804 9.54626L166.293 110.599L104.997 34.9987Z" stroke="#36474A"/>
</g>
<path d="M104.996 34.9986L178.14 9.01332C178.491 8.88883 178.849 9.17684 178.804 9.54591L166.292 110.6C166.238 111.038 165.684 111.196 165.407 110.852L104.775 35.7839C104.558 35.5158 104.672 35.114 104.996 34.9986Z" stroke="#36474A"/>
</g>
<g filter="url(#filter7_ddd_212_60)">
<path d="M194.34 209.053L267.095 127.02C267.544 126.515 268.354 126.59 268.701 127.169L307.628 192.092C307.85 192.462 307.81 192.933 307.528 193.259L280.609 224.49C280.501 224.615 280.364 224.711 280.21 224.77L246.205 237.836C245.934 237.94 245.63 237.921 245.374 237.784L194.616 210.598C194.047 210.293 193.912 209.536 194.34 209.053Z" fill="#E1E8EA"/>
<g style="mix-blend-mode:overlay">
<path d="M268.272 127.426L268.272 127.426C268.099 127.138 267.694 127.099 267.469 127.352L268.272 127.426ZM268.272 127.426L307.199 192.349L307.199 192.349M268.272 127.426L307.199 192.349M307.199 192.349C307.31 192.535 307.289 192.77 307.149 192.932L307.149 192.932M307.199 192.349L307.149 192.932M307.149 192.932L280.23 224.163C280.23 224.163 280.23 224.163 280.23 224.163C280.176 224.226 280.108 224.273 280.031 224.303L280.03 224.303M307.149 192.932L280.03 224.303M280.03 224.303L246.025 237.369C245.89 237.421 245.737 237.412 245.609 237.343L194.852 210.157C194.567 210.005 194.5 209.626 194.714 209.385M280.03 224.303L194.714 209.385M194.714 209.385L267.468 127.352L194.714 209.385Z" fill="#E1E8EA"/>
<path d="M268.272 127.426L268.272 127.426C268.099 127.138 267.694 127.099 267.469 127.352L268.272 127.426ZM268.272 127.426L307.199 192.349L307.199 192.349M268.272 127.426L307.199 192.349M307.199 192.349C307.31 192.535 307.289 192.77 307.149 192.932L307.149 192.932M307.199 192.349L307.149 192.932M307.149 192.932L280.23 224.163C280.23 224.163 280.23 224.163 280.23 224.163C280.176 224.226 280.108 224.273 280.031 224.303L280.03 224.303M307.149 192.932L280.03 224.303M280.03 224.303L246.025 237.369C245.89 237.421 245.737 237.412 245.609 237.343L194.852 210.157C194.567 210.005 194.5 209.626 194.714 209.385M280.03 224.303L194.714 209.385M194.714 209.385L267.468 127.352L194.714 209.385Z" stroke="#36474A"/>
</g>
<path d="M267.469 127.352L194.714 209.385C194.5 209.626 194.567 210.005 194.852 210.157L245.61 237.343C245.738 237.412 245.89 237.421 246.026 237.369L280.03 224.303C280.107 224.274 280.176 224.226 280.23 224.163L307.149 192.933C307.29 192.77 307.31 192.534 307.2 192.349L268.272 127.426C268.099 127.137 267.694 127.099 267.469 127.352ZM267.469 127.352L267.098 127.023" stroke="#36474A"/>
</g>
<g filter="url(#filter8_ddd_212_60)">
<path d="M398.308 114.16L269.086 126.35C268.352 126.42 267.943 127.232 268.324 127.863L307.337 192.385C307.559 192.753 307.991 192.937 308.41 192.844L371.107 178.908C371.419 178.839 371.678 178.625 371.806 178.333L399.318 115.557C399.624 114.858 399.067 114.088 398.308 114.16Z" fill="#E1E8EA"/>
<g style="mix-blend-mode:overlay">
<path d="M398.308 114.16L269.086 126.35C268.352 126.42 267.943 127.232 268.324 127.863L307.337 192.385C307.559 192.753 307.991 192.937 308.41 192.844L371.107 178.908C371.419 178.839 371.678 178.625 371.806 178.333L399.318 115.557C399.624 114.858 399.067 114.088 398.308 114.16Z" fill="#E1E8EA"/>
</g>
<path d="M269.132 126.848L398.354 114.657C398.734 114.622 399.012 115.007 398.859 115.356L371.347 178.132C371.283 178.278 371.154 178.385 370.998 178.42L308.3 192.356C308.091 192.403 307.875 192.31 307.764 192.127L268.751 127.605C268.56 127.289 268.765 126.883 269.132 126.848Z" stroke="#36474A"/>
</g>
<g filter="url(#filter9_ddd_212_60)">
<path d="M268.005 126.194L268.005 126.194L304.916 24.0898L304.916 24.0897C305.081 23.6333 305.734 23.6559 305.866 24.1234L333.19 120.476C333.276 120.777 333.066 121.082 332.754 121.11L268.519 126.862C268.519 126.862 268.519 126.862 268.519 126.862C268.155 126.895 267.88 126.538 268.005 126.194Z" fill="#E1E8EA" stroke="#36474A"/>
<g style="mix-blend-mode:overlay">
<path d="M268.005 126.194L268.005 126.194L304.916 24.0898L304.916 24.0897C305.081 23.6333 305.734 23.6559 305.866 24.1234L333.19 120.476C333.276 120.777 333.066 121.082 332.754 121.11L268.519 126.862C268.519 126.862 268.519 126.862 268.519 126.862C268.155 126.895 267.88 126.538 268.005 126.194Z" fill="#E1E8EA"/>
<path d="M268.005 126.194L268.005 126.194L304.916 24.0898L304.916 24.0897C305.081 23.6333 305.734 23.6559 305.866 24.1234L333.19 120.476C333.276 120.777 333.066 121.082 332.754 121.11L268.519 126.862C268.519 126.862 268.519 126.862 268.519 126.862C268.155 126.895 267.88 126.538 268.005 126.194Z" stroke="#36474A"/>
</g>
<path d="M332.753 121.11L268.519 126.862C268.154 126.895 267.879 126.538 268.004 126.194L304.915 24.0898C305.08 23.6331 305.733 23.6561 305.866 24.1234L333.19 120.475C333.275 120.777 333.065 121.082 332.753 121.11Z" stroke="#36474A"/>
</g>
<g filter="url(#filter10_ddd_212_60)">
<path d="M397.763 115.182L333.694 121.912C333.209 121.963 332.758 121.656 332.627 121.187L305.699 24.9987C305.453 24.1175 306.421 23.3953 307.195 23.883L353.899 53.2996C354.004 53.3661 354.096 53.4517 354.17 53.5521L398.463 113.594C398.922 114.216 398.532 115.102 397.763 115.182Z" fill="#E1E8EA"/>
<g style="mix-blend-mode:overlay">
<path d="M397.763 115.182L333.694 121.912C333.209 121.963 332.758 121.656 332.627 121.187L305.699 24.9987C305.453 24.1175 306.421 23.3953 307.195 23.883L353.899 53.2996C354.004 53.3661 354.096 53.4517 354.17 53.5521L398.463 113.594C398.922 114.216 398.532 115.102 397.763 115.182Z" fill="#E1E8EA"/>
</g>
<path d="M397.712 114.685L333.643 121.415C333.4 121.44 333.175 121.287 333.109 121.052L306.182 24.8641C306.059 24.4235 306.543 24.0624 306.93 24.3063L353.633 53.7229C353.686 53.7561 353.732 53.7989 353.769 53.8491L398.062 113.891C398.291 114.202 398.096 114.645 397.712 114.685Z" stroke="#36474A" stroke-linejoin="round"/>
</g>
<g filter="url(#filter11_ddd_212_60)">
<path d="M187.024 239.985L108.808 308.539C108.038 309.214 106.872 308.434 107.202 307.465L122.845 261.456C122.943 261.168 123.167 260.94 123.453 260.837L186.026 238.292C187.065 237.918 187.855 239.257 187.024 239.985Z" fill="#E1E8EA"/>
<g style="mix-blend-mode:overlay">
<path d="M186.694 239.609L186.694 239.609L108.478 308.163L108.478 308.163C108.093 308.501 107.51 308.111 107.675 307.626L107.675 307.626L123.318 261.617C123.367 261.473 123.48 261.359 123.622 261.308L123.622 261.308L186.195 238.763C186.195 238.763 186.195 238.763 186.195 238.763C186.716 238.575 187.109 239.246 186.694 239.609Z" fill="#E1E8EA"/>
<path d="M186.694 239.609L186.694 239.609L108.478 308.163L108.478 308.163C108.093 308.501 107.51 308.111 107.675 307.626L107.675 307.626L123.318 261.617C123.367 261.473 123.48 261.359 123.622 261.308L123.622 261.308L186.195 238.763C186.195 238.763 186.195 238.763 186.195 238.763C186.716 238.575 187.109 239.246 186.694 239.609Z" stroke="#36474A"/>
</g>
<path d="M186.694 239.609L108.478 308.163C108.093 308.5 107.511 308.11 107.675 307.626L123.318 261.617C123.367 261.473 123.479 261.359 123.622 261.307L186.195 238.763C186.715 238.575 187.11 239.245 186.694 239.609Z" stroke="#36474A"/>
</g>
<g filter="url(#filter12_ddd_212_60)">
<path d="M55 206.962V250.494C55 250.987 55.3589 251.406 55.8458 251.482L122.975 261.961C123.141 261.986 123.311 261.97 123.469 261.913L186.511 239.176C186.818 239.066 187.051 238.813 187.137 238.499L194.812 210.327C194.925 209.914 194.762 209.476 194.409 209.236L167.848 191.214C167.644 191.076 167.397 191.018 167.153 191.051L55.8671 205.971C55.3706 206.038 55 206.461 55 206.962Z" fill="#E1E8EA"/>
<g style="mix-blend-mode:overlay">
<path d="M123.469 261.913L123.299 261.443L186.341 238.706L186.342 238.705C186.495 238.651 186.611 238.525 186.655 238.368L123.469 261.913ZM123.469 261.913L123.299 261.443C123.221 261.471 123.136 261.479 123.051 261.467C123.05 261.467 123.05 261.467 123.049 261.467L55.9229 250.988C55.6793 250.95 55.5 250.741 55.5 250.494V206.962C55.5 206.712 55.6849 206.5 55.9339 206.467C55.9339 206.467 55.9339 206.467 55.934 206.467L167.219 191.547L167.22 191.547C167.342 191.53 167.465 191.559 167.568 191.628C167.568 191.628 167.568 191.628 167.568 191.628L194.128 209.65C194.305 209.77 194.386 209.989 194.33 210.195L194.33 210.196L186.655 238.367L123.469 261.913Z" fill="#E1E8EA"/>
<path d="M123.469 261.913L123.299 261.443L186.341 238.706L186.342 238.705C186.495 238.651 186.611 238.525 186.655 238.368L123.469 261.913ZM123.469 261.913L123.299 261.443C123.221 261.471 123.136 261.479 123.051 261.467C123.05 261.467 123.05 261.467 123.049 261.467L55.9229 250.988C55.6793 250.95 55.5 250.741 55.5 250.494V206.962C55.5 206.712 55.6849 206.5 55.9339 206.467C55.9339 206.467 55.9339 206.467 55.934 206.467L167.219 191.547L167.22 191.547C167.342 191.53 167.465 191.559 167.568 191.628C167.568 191.628 167.568 191.628 167.568 191.628L194.128 209.65C194.305 209.77 194.386 209.989 194.33 210.195L194.33 210.196L186.655 238.367L123.469 261.913Z" stroke="#36474A"/>
</g>
<path d="M55.5 250.494V206.962C55.5 206.712 55.6853 206.5 55.9336 206.467L167.22 191.546C167.342 191.53 167.465 191.559 167.567 191.628L194.128 209.65C194.305 209.77 194.386 209.989 194.33 210.195L186.654 238.367C186.611 238.524 186.495 238.651 186.341 238.706L123.299 261.443C123.22 261.471 123.135 261.479 123.052 261.467L55.9229 250.988C55.6795 250.95 55.5 250.74 55.5 250.494Z" stroke="#36474A"/>
</g>
</g>
<defs>
<filter id="filter0_ddd_212_60" x="0.0419922" y="98.4829" width="104.363" height="123.19" filterUnits="userSpaceOnUse" color-interpolation-filters="sRGB">
<feFlood flood-opacity="0" result="BackgroundImageFix"/>
<feColorMatrix in="SourceAlpha" type="matrix" values="0 0 0 0 0 0 0 0 0 0 0 0 0 0 0 0 0 0 127 0" result="hardAlpha"/>
<feOffset dy="1"/>
<feGaussianBlur stdDeviation="2"/>
<feColorMatrix type="matrix" values="0 0 0 0 0 0 0 0 0 0 0 0 0 0 0 0 0 0 0.1 0"/>
<feBlend mode="normal" in2="BackgroundImageFix" result="effect1_dropShadow_212_60"/>
<feColorMatrix in="SourceAlpha" type="matrix" values="0 0 0 0 0 0 0 0 0 0 0 0 0 0 0 0 0 0 127 0" result="hardAlpha"/>
<feOffset dy="8"/>
<feGaussianBlur stdDeviation="8"/>
<feColorMatrix type="matrix" values="0 0 0 0 0 0 0 0 0 0 0 0 0 0 0 0 0 0 0.05 0"/>
<feBlend mode="normal" in2="effect1_dropShadow_212_60" result="effect2_dropShadow_212_60"/>
<feColorMatrix in="SourceAlpha" type="matrix" values="0 0 0 0 0 0 0 0 0 0 0 0 0 0 0 0 0 0 127 0" result="hardAlpha"/>
<feOffset/>
<feColorMatrix type="matrix" values="0 0 0 0 0 0 0 0 0 0 0 0 0 0 0 0 0 0 0.03 0"/>
<feBlend mode="normal" in2="effect2_dropShadow_212_60" result="effect3_dropShadow_212_60"/>
<feBlend mode="normal" in="SourceGraphic" in2="effect3_dropShadow_212_60" result="shape"/>
</filter>
<filter id="filter1_ddd_212_60" x="20.6299" y="102.9" width="163.349" height="128.069" filterUnits="userSpaceOnUse" color-interpolation-filters="sRGB">
<feFlood flood-opacity="0" result="BackgroundImageFix"/>
<feColorMatrix in="SourceAlpha" type="matrix" values="0 0 0 0 0 0 0 0 0 0 0 0 0 0 0 0 0 0 127 0" result="hardAlpha"/>
<feOffset dy="1"/>
<feGaussianBlur stdDeviation="2"/>
<feColorMatrix type="matrix" values="0 0 0 0 0 0 0 0 0 0 0 0 0 0 0 0 0 0 0.1 0"/>
<feBlend mode="normal" in2="BackgroundImageFix" result="effect1_dropShadow_212_60"/>
<feColorMatrix in="SourceAlpha" type="matrix" values="0 0 0 0 0 0 0 0 0 0 0 0 0 0 0 0 0 0 127 0" result="hardAlpha"/>
<feOffset dy="8"/>
<feGaussianBlur stdDeviation="8"/>
<feColorMatrix type="matrix" values="0 0 0 0 0 0 0 0 0 0 0 0 0 0 0 0 0 0 0.05 0"/>
<feBlend mode="normal" in2="effect1_dropShadow_212_60" result="effect2_dropShadow_212_60"/>
<feColorMatrix in="SourceAlpha" type="matrix" values="0 0 0 0 0 0 0 0 0 0 0 0 0 0 0 0 0 0 127 0" result="hardAlpha"/>
<feOffset/>
<feColorMatrix type="matrix" values="0 0 0 0 0 0 0 0 0 0 0 0 0 0 0 0 0 0 0.03 0"/>
<feBlend mode="normal" in2="effect2_dropShadow_212_60" result="effect3_dropShadow_212_60"/>
<feBlend mode="normal" in="SourceGraphic" in2="effect3_dropShadow_212_60" result="shape"/>
</filter>
<filter id="filter2_ddd_212_60" x="9.24805" y="26.4575" width="172.578" height="135.961" filterUnits="userSpaceOnUse" color-interpolation-filters="sRGB">
<feFlood flood-opacity="0" result="BackgroundImageFix"/>
<feColorMatrix in="SourceAlpha" type="matrix" values="0 0 0 0 0 0 0 0 0 0 0 0 0 0 0 0 0 0 127 0" result="hardAlpha"/>
<feOffset dy="1"/>
<feGaussianBlur stdDeviation="2"/>
<feColorMatrix type="matrix" values="0 0 0 0 0 0 0 0 0 0 0 0 0 0 0 0 0 0 0.1 0"/>
<feBlend mode="normal" in2="BackgroundImageFix" result="effect1_dropShadow_212_60"/>
<feColorMatrix in="SourceAlpha" type="matrix" values="0 0 0 0 0 0 0 0 0 0 0 0 0 0 0 0 0 0 127 0" result="hardAlpha"/>
<feOffset dy="8"/>
<feGaussianBlur stdDeviation="8"/>
<feColorMatrix type="matrix" values="0 0 0 0 0 0 0 0 0 0 0 0 0 0 0 0 0 0 0.05 0"/>
<feBlend mode="normal" in2="effect1_dropShadow_212_60" result="effect2_dropShadow_212_60"/>
<feColorMatrix in="SourceAlpha" type="matrix" values="0 0 0 0 0 0 0 0 0 0 0 0 0 0 0 0 0 0 127 0" result="hardAlpha"/>
<feOffset/>
<feColorMatrix type="matrix" values="0 0 0 0 0 0 0 0 0 0 0 0 0 0 0 0 0 0 0.03 0"/>
<feBlend mode="normal" in2="effect2_dropShadow_212_60" result="effect3_dropShadow_212_60"/>
<feBlend mode="normal" in="SourceGraphic" in2="effect3_dropShadow_212_60" result="shape"/>
</filter>
<filter id="filter3_ddd_212_60" x="163.187" y="0" width="158.446" height="150.425" filterUnits="userSpaceOnUse" color-interpolation-filters="sRGB">
<feFlood flood-opacity="0" result="BackgroundImageFix"/>
<feColorMatrix in="SourceAlpha" type="matrix" values="0 0 0 0 0 0 0 0 0 0 0 0 0 0 0 0 0 0 127 0" result="hardAlpha"/>
<feOffset dy="1"/>
<feGaussianBlur stdDeviation="2"/>
<feColorMatrix type="matrix" values="0 0 0 0 0 0 0 0 0 0 0 0 0 0 0 0 0 0 0.1 0"/>
<feBlend mode="normal" in2="BackgroundImageFix" result="effect1_dropShadow_212_60"/>
<feColorMatrix in="SourceAlpha" type="matrix" values="0 0 0 0 0 0 0 0 0 0 0 0 0 0 0 0 0 0 127 0" result="hardAlpha"/>
<feOffset dy="8"/>
<feGaussianBlur stdDeviation="8"/>
<feColorMatrix type="matrix" values="0 0 0 0 0 0 0 0 0 0 0 0 0 0 0 0 0 0 0.05 0"/>
<feBlend mode="normal" in2="effect1_dropShadow_212_60" result="effect2_dropShadow_212_60"/>
<feColorMatrix in="SourceAlpha" type="matrix" values="0 0 0 0 0 0 0 0 0 0 0 0 0 0 0 0 0 0 127 0" result="hardAlpha"/>
<feOffset/>
<feColorMatrix type="matrix" values="0 0 0 0 0 0 0 0 0 0 0 0 0 0 0 0 0 0 0.03 0"/>
<feBlend mode="normal" in2="effect2_dropShadow_212_60" result="effect3_dropShadow_212_60"/>
<feBlend mode="normal" in="SourceGraphic" in2="effect3_dropShadow_212_60" result="shape"/>
</filter>
<filter id="filter4_ddd_212_60" x="150.107" y="0.595703" width="133.138" height="150.062" filterUnits="userSpaceOnUse" color-interpolation-filters="sRGB">
<feFlood flood-opacity="0" result="BackgroundImageFix"/>
<feColorMatrix in="SourceAlpha" type="matrix" values="0 0 0 0 0 0 0 0 0 0 0 0 0 0 0 0 0 0 127 0" result="hardAlpha"/>
<feOffset dy="1"/>
<feGaussianBlur stdDeviation="2"/>
<feColorMatrix type="matrix" values="0 0 0 0 0 0 0 0 0 0 0 0 0 0 0 0 0 0 0.1 0"/>
<feBlend mode="normal" in2="BackgroundImageFix" result="effect1_dropShadow_212_60"/>
<feColorMatrix in="SourceAlpha" type="matrix" values="0 0 0 0 0 0 0 0 0 0 0 0 0 0 0 0 0 0 127 0" result="hardAlpha"/>
<feOffset dy="8"/>
<feGaussianBlur stdDeviation="8"/>
<feColorMatrix type="matrix" values="0 0 0 0 0 0 0 0 0 0 0 0 0 0 0 0 0 0 0.05 0"/>
<feBlend mode="normal" in2="effect1_dropShadow_212_60" result="effect2_dropShadow_212_60"/>
<feColorMatrix in="SourceAlpha" type="matrix" values="0 0 0 0 0 0 0 0 0 0 0 0 0 0 0 0 0 0 127 0" result="hardAlpha"/>
<feOffset/>
<feColorMatrix type="matrix" values="0 0 0 0 0 0 0 0 0 0 0 0 0 0 0 0 0 0 0.03 0"/>
<feBlend mode="normal" in2="effect2_dropShadow_212_60" result="effect3_dropShadow_212_60"/>
<feBlend mode="normal" in="SourceGraphic" in2="effect3_dropShadow_212_60" result="shape"/>
</filter>
<filter id="filter5_ddd_212_60" x="149.028" y="102.664" width="135.01" height="131.023" filterUnits="userSpaceOnUse" color-interpolation-filters="sRGB">
<feFlood flood-opacity="0" result="BackgroundImageFix"/>
<feColorMatrix in="SourceAlpha" type="matrix" values="0 0 0 0 0 0 0 0 0 0 0 0 0 0 0 0 0 0 127 0" result="hardAlpha"/>
<feOffset dy="1"/>
<feGaussianBlur stdDeviation="2"/>
<feColorMatrix type="matrix" values="0 0 0 0 0 0 0 0 0 0 0 0 0 0 0 0 0 0 0.1 0"/>
<feBlend mode="normal" in2="BackgroundImageFix" result="effect1_dropShadow_212_60"/>
<feColorMatrix in="SourceAlpha" type="matrix" values="0 0 0 0 0 0 0 0 0 0 0 0 0 0 0 0 0 0 127 0" result="hardAlpha"/>
<feOffset dy="8"/>
<feGaussianBlur stdDeviation="8"/>
<feColorMatrix type="matrix" values="0 0 0 0 0 0 0 0 0 0 0 0 0 0 0 0 0 0 0.05 0"/>
<feBlend mode="normal" in2="effect1_dropShadow_212_60" result="effect2_dropShadow_212_60"/>
<feColorMatrix in="SourceAlpha" type="matrix" values="0 0 0 0 0 0 0 0 0 0 0 0 0 0 0 0 0 0 127 0" result="hardAlpha"/>
<feOffset/>
<feColorMatrix type="matrix" values="0 0 0 0 0 0 0 0 0 0 0 0 0 0 0 0 0 0 0.03 0"/>
<feBlend mode="normal" in2="effect2_dropShadow_212_60" result="effect3_dropShadow_212_60"/>
<feBlend mode="normal" in="SourceGraphic" in2="effect3_dropShadow_212_60" result="shape"/>
</filter>
<filter id="filter6_ddd_212_60" x="88.1641" y="0.483398" width="107.145" height="135.056" filterUnits="userSpaceOnUse" color-interpolation-filters="sRGB">
<feFlood flood-opacity="0" result="BackgroundImageFix"/>
<feColorMatrix in="SourceAlpha" type="matrix" values="0 0 0 0 0 0 0 0 0 0 0 0 0 0 0 0 0 0 127 0" result="hardAlpha"/>
<feOffset dy="1"/>
<feGaussianBlur stdDeviation="2"/>
<feColorMatrix type="matrix" values="0 0 0 0 0 0 0 0 0 0 0 0 0 0 0 0 0 0 0.1 0"/>
<feBlend mode="normal" in2="BackgroundImageFix" result="effect1_dropShadow_212_60"/>
<feColorMatrix in="SourceAlpha" type="matrix" values="0 0 0 0 0 0 0 0 0 0 0 0 0 0 0 0 0 0 127 0" result="hardAlpha"/>
<feOffset dy="8"/>
<feGaussianBlur stdDeviation="8"/>
<feColorMatrix type="matrix" values="0 0 0 0 0 0 0 0 0 0 0 0 0 0 0 0 0 0 0.05 0"/>
<feBlend mode="normal" in2="effect1_dropShadow_212_60" result="effect2_dropShadow_212_60"/>
<feColorMatrix in="SourceAlpha" type="matrix" values="0 0 0 0 0 0 0 0 0 0 0 0 0 0 0 0 0 0 127 0" result="hardAlpha"/>
<feOffset/>
<feColorMatrix type="matrix" values="0 0 0 0 0 0 0 0 0 0 0 0 0 0 0 0 0 0 0.03 0"/>
<feBlend mode="normal" in2="effect2_dropShadow_212_60" result="effect3_dropShadow_212_60"/>
<feBlend mode="normal" in="SourceGraphic" in2="effect3_dropShadow_212_60" result="shape"/>
</filter>
<filter id="filter7_ddd_212_60" x="178.088" y="118.649" width="145.683" height="143.253" filterUnits="userSpaceOnUse" color-interpolation-filters="sRGB">
<feFlood flood-opacity="0" result="BackgroundImageFix"/>
<feColorMatrix in="SourceAlpha" type="matrix" values="0 0 0 0 0 0 0 0 0 0 0 0 0 0 0 0 0 0 127 0" result="hardAlpha"/>
<feOffset dy="1"/>
<feGaussianBlur stdDeviation="2"/>
<feColorMatrix type="matrix" values="0 0 0 0 0 0 0 0 0 0 0 0 0 0 0 0 0 0 0.1 0"/>
<feBlend mode="normal" in2="BackgroundImageFix" result="effect1_dropShadow_212_60"/>
<feColorMatrix in="SourceAlpha" type="matrix" values="0 0 0 0 0 0 0 0 0 0 0 0 0 0 0 0 0 0 127 0" result="hardAlpha"/>
<feOffset dy="8"/>
<feGaussianBlur stdDeviation="8"/>
<feColorMatrix type="matrix" values="0 0 0 0 0 0 0 0 0 0 0 0 0 0 0 0 0 0 0.05 0"/>
<feBlend mode="normal" in2="effect1_dropShadow_212_60" result="effect2_dropShadow_212_60"/>
<feColorMatrix in="SourceAlpha" type="matrix" values="0 0 0 0 0 0 0 0 0 0 0 0 0 0 0 0 0 0 127 0" result="hardAlpha"/>
<feOffset/>
<feColorMatrix type="matrix" values="0 0 0 0 0 0 0 0 0 0 0 0 0 0 0 0 0 0 0.03 0"/>
<feBlend mode="normal" in2="effect2_dropShadow_212_60" result="effect3_dropShadow_212_60"/>
<feBlend mode="normal" in="SourceGraphic" in2="effect3_dropShadow_212_60" result="shape"/>
</filter>
<filter id="filter8_ddd_212_60" x="252.178" y="106.155" width="163.226" height="110.713" filterUnits="userSpaceOnUse" color-interpolation-filters="sRGB">
<feFlood flood-opacity="0" result="BackgroundImageFix"/>
<feColorMatrix in="SourceAlpha" type="matrix" values="0 0 0 0 0 0 0 0 0 0 0 0 0 0 0 0 0 0 127 0" result="hardAlpha"/>
<feOffset dy="1"/>
<feGaussianBlur stdDeviation="2"/>
<feColorMatrix type="matrix" values="0 0 0 0 0 0 0 0 0 0 0 0 0 0 0 0 0 0 0.1 0"/>
<feBlend mode="normal" in2="BackgroundImageFix" result="effect1_dropShadow_212_60"/>
<feColorMatrix in="SourceAlpha" type="matrix" values="0 0 0 0 0 0 0 0 0 0 0 0 0 0 0 0 0 0 127 0" result="hardAlpha"/>
<feOffset dy="8"/>
<feGaussianBlur stdDeviation="8"/>
<feColorMatrix type="matrix" values="0 0 0 0 0 0 0 0 0 0 0 0 0 0 0 0 0 0 0.05 0"/>
<feBlend mode="normal" in2="effect1_dropShadow_212_60" result="effect2_dropShadow_212_60"/>
<feColorMatrix in="SourceAlpha" type="matrix" values="0 0 0 0 0 0 0 0 0 0 0 0 0 0 0 0 0 0 127 0" result="hardAlpha"/>
<feOffset/>
<feColorMatrix type="matrix" values="0 0 0 0 0 0 0 0 0 0 0 0 0 0 0 0 0 0 0.03 0"/>
<feBlend mode="normal" in2="effect2_dropShadow_212_60" result="effect3_dropShadow_212_60"/>
<feBlend mode="normal" in="SourceGraphic" in2="effect3_dropShadow_212_60" result="shape"/>
</filter>
<filter id="filter9_ddd_212_60" x="251.473" y="15.2598" width="98.2373" height="136.104" filterUnits="userSpaceOnUse" color-interpolation-filters="sRGB">
<feFlood flood-opacity="0" result="BackgroundImageFix"/>
<feColorMatrix in="SourceAlpha" type="matrix" values="0 0 0 0 0 0 0 0 0 0 0 0 0 0 0 0 0 0 127 0" result="hardAlpha"/>
<feOffset dy="1"/>
<feGaussianBlur stdDeviation="2"/>
<feColorMatrix type="matrix" values="0 0 0 0 0 0 0 0 0 0 0 0 0 0 0 0 0 0 0.1 0"/>
<feBlend mode="normal" in2="BackgroundImageFix" result="effect1_dropShadow_212_60"/>
<feColorMatrix in="SourceAlpha" type="matrix" values="0 0 0 0 0 0 0 0 0 0 0 0 0 0 0 0 0 0 127 0" result="hardAlpha"/>
<feOffset dy="8"/>
<feGaussianBlur stdDeviation="8"/>
<feColorMatrix type="matrix" values="0 0 0 0 0 0 0 0 0 0 0 0 0 0 0 0 0 0 0.05 0"/>
<feBlend mode="normal" in2="effect1_dropShadow_212_60" result="effect2_dropShadow_212_60"/>
<feColorMatrix in="SourceAlpha" type="matrix" values="0 0 0 0 0 0 0 0 0 0 0 0 0 0 0 0 0 0 127 0" result="hardAlpha"/>
<feOffset/>
<feColorMatrix type="matrix" values="0 0 0 0 0 0 0 0 0 0 0 0 0 0 0 0 0 0 0.03 0"/>
<feBlend mode="normal" in2="effect2_dropShadow_212_60" result="effect3_dropShadow_212_60"/>
<feBlend mode="normal" in="SourceGraphic" in2="effect3_dropShadow_212_60" result="shape"/>
</filter>
<filter id="filter10_ddd_212_60" x="289.66" y="15.7256" width="125" height="130.192" filterUnits="userSpaceOnUse" color-interpolation-filters="sRGB">
<feFlood flood-opacity="0" result="BackgroundImageFix"/>
<feColorMatrix in="SourceAlpha" type="matrix" values="0 0 0 0 0 0 0 0 0 0 0 0 0 0 0 0 0 0 127 0" result="hardAlpha"/>
<feOffset dy="1"/>
<feGaussianBlur stdDeviation="2"/>
<feColorMatrix type="matrix" values="0 0 0 0 0 0 0 0 0 0 0 0 0 0 0 0 0 0 0.1 0"/>
<feBlend mode="normal" in2="BackgroundImageFix" result="effect1_dropShadow_212_60"/>
<feColorMatrix in="SourceAlpha" type="matrix" values="0 0 0 0 0 0 0 0 0 0 0 0 0 0 0 0 0 0 127 0" result="hardAlpha"/>
<feOffset dy="8"/>
<feGaussianBlur stdDeviation="8"/>
<feColorMatrix type="matrix" values="0 0 0 0 0 0 0 0 0 0 0 0 0 0 0 0 0 0 0.05 0"/>
<feBlend mode="normal" in2="effect1_dropShadow_212_60" result="effect2_dropShadow_212_60"/>
<feColorMatrix in="SourceAlpha" type="matrix" values="0 0 0 0 0 0 0 0 0 0 0 0 0 0 0 0 0 0 127 0" result="hardAlpha"/>
<feOffset/>
<feColorMatrix type="matrix" values="0 0 0 0 0 0 0 0 0 0 0 0 0 0 0 0 0 0 0.03 0"/>
<feBlend mode="normal" in2="effect2_dropShadow_212_60" result="effect3_dropShadow_212_60"/>
<feBlend mode="normal" in="SourceGraphic" in2="effect3_dropShadow_212_60" result="shape"/>
</filter>
<filter id="filter11_ddd_212_60" x="91.1445" y="230.228" width="112.227" height="102.565" filterUnits="userSpaceOnUse" color-interpolation-filters="sRGB">
<feFlood flood-opacity="0" result="BackgroundImageFix"/>
<feColorMatrix in="SourceAlpha" type="matrix" values="0 0 0 0 0 0 0 0 0 0 0 0 0 0 0 0 0 0 127 0" result="hardAlpha"/>
<feOffset dy="1"/>
<feGaussianBlur stdDeviation="2"/>
<feColorMatrix type="matrix" values="0 0 0 0 0 0 0 0 0 0 0 0 0 0 0 0 0 0 0.1 0"/>
<feBlend mode="normal" in2="BackgroundImageFix" result="effect1_dropShadow_212_60"/>
<feColorMatrix in="SourceAlpha" type="matrix" values="0 0 0 0 0 0 0 0 0 0 0 0 0 0 0 0 0 0 127 0" result="hardAlpha"/>
<feOffset dy="8"/>
<feGaussianBlur stdDeviation="8"/>
<feColorMatrix type="matrix" values="0 0 0 0 0 0 0 0 0 0 0 0 0 0 0 0 0 0 0.05 0"/>
<feBlend mode="normal" in2="effect1_dropShadow_212_60" result="effect2_dropShadow_212_60"/>
<feColorMatrix in="SourceAlpha" type="matrix" values="0 0 0 0 0 0 0 0 0 0 0 0 0 0 0 0 0 0 127 0" result="hardAlpha"/>
<feOffset/>
<feColorMatrix type="matrix" values="0 0 0 0 0 0 0 0 0 0 0 0 0 0 0 0 0 0 0.03 0"/>
<feBlend mode="normal" in2="effect2_dropShadow_212_60" result="effect3_dropShadow_212_60"/>
<feBlend mode="normal" in="SourceGraphic" in2="effect3_dropShadow_212_60" result="shape"/>
</filter>
<filter id="filter12_ddd_212_60" x="39" y="183.042" width="171.848" height="102.931" filterUnits="userSpaceOnUse" color-interpolation-filters="sRGB">
<feFlood flood-opacity="0" result="BackgroundImageFix"/>
<feColorMatrix in="SourceAlpha" type="matrix" values="0 0 0 0 0 0 0 0 0 0 0 0 0 0 0 0 0 0 127 0" result="hardAlpha"/>
<feOffset dy="1"/>
<feGaussianBlur stdDeviation="2"/>
<feColorMatrix type="matrix" values="0 0 0 0 0 0 0 0 0 0 0 0 0 0 0 0 0 0 0.1 0"/>
<feBlend mode="normal" in2="BackgroundImageFix" result="effect1_dropShadow_212_60"/>
<feColorMatrix in="SourceAlpha" type="matrix" values="0 0 0 0 0 0 0 0 0 0 0 0 0 0 0 0 0 0 127 0" result="hardAlpha"/>
<feOffset dy="8"/>
<feGaussianBlur stdDeviation="8"/>
<feColorMatrix type="matrix" values="0 0 0 0 0 0 0 0 0 0 0 0 0 0 0 0 0 0 0.05 0"/>
<feBlend mode="normal" in2="effect1_dropShadow_212_60" result="effect2_dropShadow_212_60"/>
<feColorMatrix in="SourceAlpha" type="matrix" values="0 0 0 0 0 0 0 0 0 0 0 0 0 0 0 0 0 0 127 0" result="hardAlpha"/>
<feOffset/>
<feColorMatrix type="matrix" values="0 0 0 0 0 0 0 0 0 0 0 0 0 0 0 0 0 0 0.03 0"/>
<feBlend mode="normal" in2="effect2_dropShadow_212_60" result="effect3_dropShadow_212_60"/>
<feBlend mode="normal" in="SourceGraphic" in2="effect3_dropShadow_212_60" result="shape"/>
</filter>
<clipPath id="clip0_212_60">
<rect width="416" height="333" fill="white"/>
</clipPath>
</defs>
</svg>
