

<svg width="540" height="462" viewBox="0 0 540 462" fill="none" xmlns="http://www.w3.org/2000/svg">
<g clip-path="url(#clip0_239_583)">
<path d="M264.57 44.5738C263.541 46.1467 261.04 46.7187 258.833 45.8607C254.714 44.2878 245.299 51.7233 245.299 56.585C245.299 58.1579 242.945 59.0159 240.15 58.5869C237.355 58.1579 233.089 58.8729 230.735 60.3028C228.381 61.7327 219.849 62.7336 211.611 62.4476C203.373 62.3046 198.371 62.7336 200.283 63.5916C205.432 65.7364 201.46 73.3149 195.135 73.3149C186.896 73.3149 179.835 81.7514 181.895 89.1869C182.777 92.7616 182.483 96.1934 181.306 96.6224C168.655 102.199 166.301 114.353 167.478 167.403C168.066 196.001 167.478 218.736 166.154 217.878C164.83 217.163 161.594 218.593 159.093 221.31C150.413 230.747 173.068 298.954 182.042 290.231C183.366 288.802 175.128 255.914 172.038 250.48C170.567 248.049 170.714 235.323 172.185 221.882C180.865 141.092 181.306 138.948 187.485 129.939C194.546 119.644 208.374 110.921 220.879 108.634C235.296 106.06 283.989 106.06 285.607 108.491C286.49 109.92 289.579 110.349 292.668 109.634C326.062 101.055 356.367 144.238 357.397 202.006C357.691 216.734 362.104 237.754 362.693 227.316C362.84 224.885 364.899 221.167 367.4 219.165C369.754 217.306 370.931 214.447 370.048 212.874C366.812 208.012 368.724 138.376 372.108 134.515C377.404 128.223 372.108 114.353 359.456 101.627C352.836 95.0495 348.864 90.4738 350.63 91.4747C352.395 92.6186 354.602 92.1897 355.484 90.7598C356.367 89.1869 355.779 87.185 354.16 86.1841C352.542 85.1831 351.807 83.3242 352.689 81.8943C353.572 80.6074 351.218 78.4626 347.688 77.4616C338.861 74.7448 321.943 63.8775 321.796 61.0177C321.796 59.7308 323.267 59.5878 325.18 60.7318C327.386 62.0187 327.828 61.4467 326.504 59.4448C325.327 57.586 323.12 56.871 321.649 57.729C320.031 58.5869 318.854 58.0149 318.854 56.585C318.854 51.8663 307.232 49.7215 302.525 53.4392C300.171 55.2981 295.316 56.1561 291.639 55.1551C287.961 54.2972 280.458 52.4383 274.721 51.0084L264.423 48.4346L271.779 45.2888C278.693 42.429 278.84 42.143 272.662 42C269.131 42 265.453 43.1439 264.57 44.5738ZM279.87 83.8962C276.928 90.9027 275.457 91.9037 272.662 88.9009C269.866 86.0411 270.455 83.6102 275.457 77.4616C282.959 68.1673 285.313 71.599 279.87 83.8962ZM303.996 85.4691C302.378 90.6168 301.201 95.0495 301.201 95.4784C301.201 95.9074 299.73 96.1934 298.112 96.1934C294.581 96.1934 297.082 85.6121 301.936 79.7495C306.497 74.1729 306.938 75.4598 303.996 85.4691ZM339.449 93.1906C339.449 96.3364 330.917 100.912 325.474 100.626C320.619 100.483 322.09 95.0495 327.239 94.3345C329.446 94.0485 331.947 93.0476 332.829 92.1897C335.477 89.4728 339.449 90.1878 339.449 93.1906Z" fill="black"/>
<path d="M315.341 185.702C312.478 186.084 308.662 187.133 307.04 187.991C305.036 189.04 303.032 189.421 301.506 189.04C300.17 188.754 298.548 188.849 297.88 189.421C296.449 190.566 287.194 191.71 280.324 191.615C275.935 191.615 275.076 191.901 272.882 194.571C270.878 196.955 270.496 198.195 270.878 200.483C271.26 202.009 271.641 203.44 271.832 203.726C272.118 203.916 274.599 203.63 277.366 202.963C280.133 202.295 285.19 201.437 288.625 200.96C292.06 200.483 297.403 199.625 300.551 199.148C309.807 197.718 319.348 197.241 322.974 198.099C324.786 198.576 328.603 199.244 331.274 199.53C335.854 200.102 336.236 200.007 335.568 198.385C334.805 196.287 322.592 184.749 321.447 184.939C320.97 185.035 318.203 185.416 315.341 185.702Z" fill="black"/>
<path d="M196.989 191.071C199.524 191.054 202.986 191.557 204.521 192.172C206.415 192.921 208.208 193.02 209.47 192.442C210.582 191.982 212 191.855 212.666 192.321C214.079 193.241 222.262 193.098 228.192 192.073C231.99 191.478 232.776 191.64 235.084 193.94C237.182 195.988 237.702 197.143 237.722 199.422C237.625 200.959 237.514 202.402 237.392 202.707C237.174 202.931 234.983 202.989 232.487 202.715C229.991 202.441 225.484 202.292 222.439 202.294C219.394 202.296 214.639 202.186 211.842 202.149C203.615 202.013 195.286 202.844 192.28 204.171C190.785 204.881 187.585 206.049 185.317 206.69C181.441 207.868 181.097 207.827 181.427 206.159C181.766 204.014 190.568 191.127 191.588 191.158C192.016 191.186 194.468 191.181 196.989 191.071Z" fill="black"/>
<path d="M208 212.88C203.707 214.024 198.65 217.457 195.406 221.081C193.02 223.942 193.784 224.609 198.936 224.133C202.18 223.751 202.753 223.465 202.276 222.035C201.894 220.89 202.466 219.746 203.898 218.792C206.569 216.885 208.477 216.79 208.477 218.506C208.477 221.176 212.771 224.896 215.729 224.896C219.068 224.896 220.976 223.084 223.171 217.934L224.602 214.31L221.358 212.88C217.637 211.354 213.439 211.354 208 212.88Z" fill="black"/>
<path d="M367.436 223.084C365.718 226.612 365.623 227.375 366.768 232.334C367.531 235.29 368.295 241.584 368.485 246.352C368.772 251.025 369.344 255.316 369.821 255.793C370.775 256.842 370.966 256.365 372.97 245.398C374.401 237.865 374.401 235.767 373.351 228.233C371.825 218.316 370.298 216.885 367.436 223.084Z" fill="black"/>
<path d="M356.273 237.007C355.51 238.914 355.51 241.107 356.273 245.017C357.704 251.979 357.609 253.981 355.891 255.412C354.937 256.175 354.46 258.273 354.46 261.229C354.46 266.569 355.891 267.427 357.132 262.85C357.704 260.466 358.563 259.608 360.948 259.035L364.001 258.177V251.597C364.001 247.973 363.62 244.731 363.047 244.445C362.57 244.159 362.093 242.729 362.093 241.298C362.093 238.533 359.803 234.432 358.181 234.432C357.704 234.432 356.845 235.576 356.273 237.007Z" fill="black"/>
<path d="M366.959 260.847C366.863 261.515 366.386 262.087 365.718 262.087C363.905 262.087 360.28 265.997 360.852 267.427C361.138 268.19 362.092 268.762 363.142 268.762C365.05 268.762 368.294 262.945 367.531 260.942C367.149 259.989 366.959 259.989 366.959 260.847Z" fill="black"/>
<path d="M352.074 275.152C351.788 276.677 351.025 279.061 350.452 280.683C349.88 282.208 349.403 285.928 349.498 288.884C349.689 292.698 349.308 294.605 348.258 295.464C347.495 296.131 346.827 297.752 346.827 298.992C346.827 300.327 346.254 302.521 345.491 303.856C341.674 311.294 339.862 316.539 340.816 317.492C341.961 318.637 346.827 311.008 346.827 307.956C346.827 306.907 347.208 305.858 347.685 305.572C348.067 305.286 348.735 303.188 349.021 300.995C350.452 291.649 351.12 289.647 353.506 288.502C355.414 287.549 356.082 286.309 356.75 281.827C357.418 277.154 357.322 276.01 355.891 274.484C353.601 271.909 352.647 272.1 352.074 275.152Z" fill="black"/>
<path d="M189.395 311.58C189.395 312.724 189.872 313.583 190.349 313.583C190.922 313.583 191.303 313.01 191.303 312.247C191.303 311.485 190.922 310.531 190.349 310.245C189.872 309.959 189.395 310.531 189.395 311.58Z" fill="black"/>
<path d="M192.258 318.16C192.258 319.209 192.926 320.544 193.689 321.212C194.452 321.879 195.12 322.928 195.12 323.596C195.12 324.263 195.788 325.312 196.551 325.98C197.315 326.647 197.983 328.364 197.983 329.89C197.983 331.416 198.46 332.655 198.937 332.655C200.654 332.655 199.891 327.41 197.219 322.165C194.548 316.825 192.258 314.918 192.258 318.16Z" fill="black"/>
<path d="M257.138 328.745C257.138 329.222 255.898 330.081 254.276 330.653C251.032 331.702 250.746 332.751 252.94 334.658C254.657 335.993 267.443 336.661 268.206 335.325C268.492 334.849 270.21 334.753 272.023 335.135C274.503 335.612 275.267 335.421 275.267 334.277C275.267 331.797 272.595 330.557 266.202 329.985C262.768 329.794 260.001 329.127 260.001 328.745C260.001 328.269 259.333 327.887 258.569 327.887C257.806 327.887 257.138 328.269 257.138 328.745Z" fill="black"/>
<path d="M330.415 331.32C328.412 335.23 328.126 338.758 329.938 338.186C330.511 337.9 331.274 336.946 331.465 335.993C331.656 335.039 332.324 333.608 333.087 332.846C334.709 331.224 334.804 327.887 333.278 327.887C332.61 327.887 331.274 329.413 330.415 331.32Z" fill="black"/>
<path d="M200.749 335.707C200.749 336.374 200.558 338.186 200.367 339.807C199.604 346.578 202.18 350.869 203.421 344.957C203.898 342.287 204.184 342.096 205.138 343.527C205.806 344.385 206.76 345.052 207.428 345.052C209.145 345.052 208.668 342.382 206.665 341.333C205.71 340.761 204.375 339.045 203.707 337.423C202.466 334.467 200.94 333.609 200.749 335.707Z" fill="black"/>
<path d="M322.973 341.238C322.401 342.382 320.97 343.145 319.634 343.145C317.916 343.145 317.249 343.622 317.249 345.052C317.249 346.101 317.916 346.959 318.68 346.959C319.443 346.959 320.111 346.578 320.111 346.101C320.111 345.624 321.065 344.862 322.21 344.48C324.309 343.813 326.694 341.524 326.79 339.998C326.79 338.568 323.927 339.426 322.973 341.238Z" fill="black"/>
<path d="M308.471 349.629C305.513 351.346 304.941 354.302 307.326 355.256C308.089 355.542 309.711 354.97 310.856 353.921C312.001 352.872 313.909 351.441 315.15 350.869C316.295 350.297 317.249 349.343 317.249 348.866C317.249 347.341 311.238 347.817 308.471 349.629Z" fill="black"/>
<path d="M214.203 351.632C214.203 352.109 214.871 352.681 215.634 353.063C216.493 353.349 217.065 353.063 217.065 352.204C217.065 351.441 216.397 350.774 215.634 350.774C214.871 350.774 214.203 351.155 214.203 351.632Z" fill="black"/>
<path d="M218.019 354.493C218.019 355.447 220.881 356.782 221.549 356.114C221.836 355.828 221.74 355.256 221.358 354.684C220.595 353.444 218.019 353.254 218.019 354.493Z" fill="black"/>
<path d="M229.087 358.212C228.133 359.738 229.182 361.168 231.854 362.217C233.476 362.79 234.335 364.125 234.812 366.509C235.384 369.751 235.479 369.846 238.914 369.274C244.544 368.321 245.784 367.844 245.402 366.699C245.212 366.032 243.78 365.174 242.254 364.697C237.865 363.362 234.812 361.836 233.953 360.596C233.571 359.929 232.617 359.357 231.854 359.357C231.186 359.357 230.423 358.88 230.232 358.212C229.946 357.354 229.659 357.354 229.087 358.212Z" fill="black"/>
<path d="M338.144 360.024C338.049 360.501 337.953 365.364 337.858 370.896C337.762 376.808 337.285 381.576 336.713 382.339C336.14 383.102 335.282 384.723 334.9 385.963C334.518 387.298 333.851 388.728 333.373 389.3C332.896 389.873 330.416 393.115 327.84 396.548C322.401 403.891 316.962 409.04 309.139 414.19C305.99 416.288 303.032 418.577 302.65 419.149C302.269 419.816 301.315 420.389 300.647 420.389C299.884 420.389 298.834 420.961 298.261 421.724C297.594 422.487 294.636 424.203 291.678 425.633C285.476 428.494 280.038 431.927 280.038 433.072C280.038 434.121 290.533 433.262 291.296 432.118C291.678 431.546 292.918 430.783 294.159 430.497C295.304 430.116 297.021 428.78 297.784 427.445C298.834 425.92 300.265 425.157 302.173 425.157C303.891 425.157 305.895 424.203 307.326 422.773C310.093 420.007 310.57 419.816 310.57 421.819C310.57 425.633 316.485 421.533 318.107 416.574C318.871 414.095 320.206 412.76 322.878 411.425C325.55 410.185 326.408 409.231 326.122 407.991C325.55 405.798 327.458 404.654 329.175 406.084C331.37 407.896 333.469 406.466 333.469 403.223C333.469 401.411 333.946 400.362 334.805 400.362C336.236 400.362 337.667 396.071 336.808 394.545C336.427 394.069 336.713 392.066 337.381 390.159L338.526 386.726L340.148 388.919C343.201 392.924 345.396 388.251 342.915 383.007C342.247 381.385 342.247 379.955 343.106 377.952L344.155 375.091L346.445 379.86C347.685 382.434 348.735 386.44 348.735 388.538C348.735 390.731 349.021 393.878 349.403 395.69C349.88 398.36 350.071 398.551 350.739 397.025C351.12 395.976 351.502 392.733 351.502 389.777C351.693 377.952 358.563 380.432 367.436 395.404C369.058 398.265 371.443 399.981 372.397 398.932C372.684 398.741 372.302 397.788 371.634 397.025C370.489 395.69 370.775 395.118 373.161 393.21L375.928 390.922L381.366 396.548C387.568 402.937 394.724 407.038 399.781 407.038C401.88 407.038 403.407 407.61 403.693 408.468C404.075 409.231 405.41 409.899 406.937 409.899C408.368 409.899 411.421 410.948 413.711 412.187C416.001 413.427 419.341 414.762 421.058 415.144C422.776 415.525 424.779 416.765 425.638 418.005C426.687 419.53 428.309 420.293 431.84 420.77C436.133 421.342 436.61 421.724 437.183 424.203C437.755 427.35 439.95 427.922 441.763 425.443C443.385 423.249 445.77 424.489 447.392 428.494C448.155 430.306 449.205 431.832 449.777 431.832C450.254 431.832 451.304 432.118 452.163 432.404C453.308 432.786 453.689 432.404 453.689 430.974C453.689 427.731 455.884 428.59 458.746 432.976C460.655 436.028 461.99 436.314 463.899 433.93C465.044 432.5 465.139 432.69 464.948 435.647C464.662 438.698 464.376 438.984 461.513 439.27C459.796 439.461 457.792 439.175 457.22 438.698C456.552 438.221 453.403 437.458 450.159 437.077C445.198 436.505 444.148 436.696 444.148 437.84C444.148 440.129 446.724 441.845 448.346 440.51C450.636 438.603 455.502 438.889 457.029 441.082C458.651 443.466 463.803 442.989 465.234 440.319C466.284 438.317 469.051 437.935 471.913 439.556C474.203 440.796 473.44 442.322 470.387 442.322C467.047 442.322 466.666 443.943 469.719 444.992C471.436 445.564 473.058 447.185 474.012 449.283C474.871 451.095 476.207 453.098 477.066 453.765C477.829 454.433 478.497 455.482 478.497 456.245C478.497 458.343 480.596 458.915 481.836 457.198C483.554 454.91 482.504 452.144 479.737 451.381C478.497 451.095 477.543 450.332 477.829 449.665C478.306 448.234 482.981 447.567 484.508 448.807C485.176 449.283 486.989 450.046 488.706 450.332C490.328 450.714 491.95 451.572 492.236 452.335C492.427 453.002 493.858 453.765 495.385 453.956C497.484 454.147 498.152 454.814 498.343 456.817C498.533 458.533 499.201 459.487 500.156 459.487C501.014 459.487 502.541 460.155 503.495 461.013C505.022 462.539 505.212 462.443 505.785 460.822C506.071 459.773 507.025 457.58 507.789 455.863C509.506 451.858 508.647 449.188 505.403 448.425C503.972 448.139 501.873 447.471 500.633 446.995C497.293 445.66 496.434 445.946 497.102 448.044C497.579 449.569 497.293 449.951 495.671 449.951C493.954 449.951 493.858 449.665 494.812 447.853C495.767 446.136 495.576 445.564 493.667 444.134C492.427 443.18 488.515 441.273 484.985 439.938C481.55 438.507 478.115 436.886 477.543 436.123C476.97 435.456 475.444 434.598 474.203 434.311C472.867 433.93 471.818 433.262 471.818 432.786C471.818 432.213 471.245 431.832 470.673 431.832C469.528 431.832 462.944 428.685 455.979 424.871C451.304 422.296 432.985 413.713 432.126 413.713C431.744 413.713 428.691 412.378 425.352 410.852C422.012 409.231 416.478 406.656 412.948 405.035C402.643 400.362 394.056 396.167 393.579 395.404C393.293 395.022 391.957 394.259 390.717 393.782C389.381 393.21 387.664 392.352 386.9 391.875C385.469 391.017 380.412 388.728 374.497 386.249C372.684 385.486 370.489 384.437 369.726 383.96C368.963 383.579 367.627 382.911 366.863 382.625C366.1 382.339 364.192 381.481 362.761 380.622C361.234 379.86 359.04 379.383 357.895 379.573C356.463 379.86 355.318 379.383 354.555 378.238C353.983 377.285 352.838 376.522 352.074 376.522C349.975 376.522 344.155 369.942 343.392 366.7C342.438 362.218 338.621 357.449 338.144 360.024ZM482.313 441.845C482.313 444.801 479.069 446.804 476.97 445.087C474.871 443.371 475.348 441.368 477.924 441.368C479.26 441.368 480.596 440.891 480.882 440.415C481.836 438.889 482.313 439.27 482.313 441.845ZM488.324 446.613C488.42 447.09 487.752 447.662 486.893 447.853C485.844 448.044 485.176 447.567 485.176 446.613C485.176 444.992 488.038 444.897 488.324 446.613Z" fill="black"/>
<path d="M287.194 363.171C285.667 364.125 283.377 364.697 282.232 364.411C279.752 363.839 278.321 367.272 280.038 369.37C281.565 371.181 282.71 371.181 286.144 369.37C287.576 368.607 289.388 367.939 290.152 367.939C291.583 367.939 293.396 365.078 293.396 362.79C293.396 360.787 290.724 360.978 287.194 363.171Z" fill="black"/>
<path d="M270.019 364.888C267.252 365.269 264.771 366.604 264.771 367.844C264.771 368.13 267.061 368.321 269.828 368.321C276.984 368.13 277.175 368.035 277.175 366.604C277.175 365.174 274.217 364.411 270.019 364.888Z" fill="black"/>
<path d="M250.651 367.176C251.223 368.893 253.322 369.179 253.322 367.557C253.322 366.699 252.654 366.032 251.796 366.032C250.937 366.032 250.46 366.509 250.651 367.176Z" fill="black"/>
<path d="M198.841 376.713C197.982 378.43 196.742 381.1 195.978 382.626C195.311 384.056 193.593 385.677 192.257 386.25C184.433 389.206 180.044 391.685 160.294 405.131C156 408.087 144.551 413.142 139.971 414.191C138.253 414.477 136.918 415.144 136.918 415.526C136.918 415.907 135.105 416.956 132.91 417.91C126.136 420.771 119.743 424.394 119.743 424.394C119.743 424.394 118.026 425.348 116.595 425.634C115.164 426.016 114.019 426.588 114.019 426.969C114.019 427.351 112.874 428.114 111.442 428.781C109.916 429.353 107.53 430.688 105.908 431.737C103.141 433.549 100.756 434.789 89.2112 440.225C86.3488 441.655 81.0056 444.516 77.2845 446.614C73.6588 448.807 69.9377 450.81 69.1744 451.191C68.4111 451.573 66.5029 452.717 64.8808 453.766C63.3542 454.815 60.4918 456.341 58.679 457.199C56.8661 458.057 53.2404 460.823 50.7597 463.398C48.1836 465.972 45.6075 468.07 44.9396 468.07C43.5084 468.07 29.2918 482.661 28.1468 485.426C27.5744 486.666 26.8111 488.287 26.334 489.05C25.8569 489.813 25.0936 491.53 24.5212 492.865C23.9487 494.2 22.0404 498.491 20.2276 502.401C18.4147 506.311 16.2202 511.651 15.2661 514.321C14.312 516.896 13.167 519.471 12.6899 520.043C12.3083 520.52 11.9266 521.569 11.9266 522.427C11.9266 523.19 11.2587 525.097 10.4954 526.623C9.73213 528.053 9.06424 530.056 9.06424 530.914C9.06424 531.772 8.39634 533.68 7.63304 535.206C6.86974 536.636 6.20184 538.639 6.20184 539.497C6.10643 540.355 5.34312 542.739 4.29358 544.837C3.24404 546.935 2.48074 549.605 2.38532 550.75C2.38532 551.894 2.00367 553.038 1.52661 553.324C1.04954 553.61 0.381652 555.899 0 558.283C0.286239 553.134 6.01102 555.422 6.5835 554.373C7.15597 553.324 7.63304 551.703 7.63304 550.654C7.63304 549.701 8.30093 548.556 9.06424 548.175C13.7395 545.981 14.312 545.409 14.5982 542.548C14.789 540.546 15.8386 538.829 17.6514 537.494C19.7505 535.968 20.2276 535.11 19.4643 534.252C18.8918 533.584 18.701 532.154 18.9872 531.2C19.8459 528.626 18.701 526.241 16.6019 526.241C15.4569 526.241 14.789 525.574 14.789 524.334C14.789 523.285 15.2661 522.427 15.7431 522.427C16.3156 522.427 16.6973 521.95 16.6973 521.283C16.6973 520.71 17.556 519.28 18.5101 518.231C20.4184 516.228 27.1927 503.545 27.1927 502.019C27.1927 501.638 28.8148 497.919 30.723 493.914C34.4441 486.38 45.0349 474.555 49.8056 472.743C51.046 472.266 52.8588 470.55 53.7175 468.929C55.1487 466.449 55.7212 466.068 58.3927 466.545C60.8735 466.926 61.8276 466.545 63.3542 464.637C64.3083 463.398 65.4533 462.349 65.835 462.349C66.2166 462.349 68.8882 460.251 71.7506 457.581C74.5175 455.006 77.9524 452.336 79.1928 451.668C87.5891 447.091 95.9855 443.276 97.6075 443.276C98.657 443.276 99.7066 442.609 100.088 441.846C100.374 441.083 101.329 440.415 102.187 440.415C103.046 440.415 104.954 439.557 106.481 438.413C108.389 437.078 110.107 436.601 111.538 436.982C113.064 437.364 114.019 437.078 114.4 436.124C114.687 435.361 115.736 434.694 116.786 434.694C117.835 434.694 120.602 433.835 122.797 432.882C125.087 431.833 127.663 430.784 128.617 430.498C131.67 429.544 119.39 424.636 119.39 424.636L119.743 424.394C119.743 424.394 129.857 424.204 130.811 423.155C131.67 422.201 133.387 421.343 134.532 421.343C135.677 421.343 138.253 420.58 140.353 419.531C147.986 415.907 156.477 412.474 162.107 410.758C164.301 410.09 165.923 408.946 166.21 407.897C166.496 406.848 167.354 406.085 168.213 406.085C168.977 406.085 170.121 405.417 170.789 404.464C172.411 402.366 173.938 403.605 174.701 407.706L175.369 411.139L176.61 407.42C177.373 405.322 177.945 403.033 177.945 402.175C177.945 401.412 179.854 399.409 182.239 397.693C184.624 396.072 186.533 394.26 186.533 393.688C186.533 393.211 188.059 392.067 189.967 391.304C193.593 389.778 196.074 390.541 196.074 393.306C196.074 393.974 196.551 395.69 197.123 397.216C198.077 399.696 198.268 399.791 198.936 397.979C199.413 396.93 199.795 394.26 199.795 392.067C199.89 387.108 201.226 386.154 203.325 389.587C208.668 398.265 211.531 402.27 212.389 402.27C212.866 402.27 213.248 402.938 213.248 403.701C213.248 404.464 216.683 407.706 220.881 410.853C225.079 414 228.514 417.051 228.514 417.624C228.514 418.196 230.327 419.436 232.617 420.389C234.811 421.438 237.96 423.155 239.487 424.204C241.109 425.253 242.922 426.111 243.589 426.111C244.257 426.111 245.975 427.16 247.406 428.495C251.509 432.119 258.856 435.743 259.619 434.503C260.382 433.263 256.47 429.83 250.459 426.492C243.494 422.678 225.461 410.09 220.881 405.703C212.294 397.598 204.661 388.347 204.661 385.963C204.661 385.01 204.279 383.961 203.707 383.675C203.23 383.389 202.753 381.005 202.753 378.334C202.753 372.803 201.131 372.136 198.841 376.713ZM122.129 428.876C122.987 430.307 120.984 430.974 118.121 430.212L115.45 429.544L117.835 428.876C121.27 427.923 121.461 427.923 122.129 428.876Z" fill="black"/>
<path d="M252.256 259.774C252.256 261.755 253.495 263.487 254.735 263.487C256.222 263.487 257.213 261.755 257.213 259.774C257.213 257.794 256.222 256.061 254.735 256.061C253.495 256.061 252.256 257.794 252.256 259.774Z" fill="black"/>
<path d="M240.451 263.206C240.451 264.296 239.721 266.696 238.991 268.66C238.018 271.06 238.991 272.151 241.912 272.151C245.806 272.151 246.049 271.715 242.885 269.751C239.965 268.005 240.695 267.569 245.806 268.442C253.107 269.315 252.62 266.915 245.076 263.424C242.398 261.896 240.451 261.896 240.451 263.206Z" fill="black"/>
<path d="M263.791 262.422C260.443 265.666 262.356 267.751 268.813 267.751C274.074 267.751 274.552 268.214 271.683 270.299C268.813 272.384 268.813 272.616 272.4 271.457C274.792 270.762 277.422 270.067 278.14 270.067C278.857 270.067 276.705 267.982 273.357 265.434C266.661 260.337 265.943 260.105 263.791 262.422Z" fill="black"/>
<path d="M240.713 308.866L239.976 310.034C239.911 310.136 239.928 310.27 240.016 310.353C240.114 310.446 240.267 310.446 240.365 310.353L240.45 310.272C240.493 310.231 240.526 310.18 240.546 310.124L240.616 309.925C240.756 309.524 241.092 309.222 241.505 309.124L242.144 308.972L244.651 308.539C245.362 308.416 246.089 308.422 246.797 308.557C247.168 308.627 247.543 308.663 247.92 308.663H253.54L272.1 308.353L275.682 308.044H278.643C279.486 308.044 280.324 307.914 281.127 307.66L281.628 307.501C281.788 307.45 281.952 307.415 282.119 307.395L284.284 307.138C284.392 307.125 284.473 307.033 284.473 306.924C284.473 306.851 284.436 306.782 284.373 306.743L283.738 306.34C283.578 306.239 283.402 306.167 283.217 306.128L281.78 305.825C280.974 305.654 280.15 305.587 279.327 305.624L273.728 305.878L266.89 306.187L264.407 306.58C263.48 306.727 262.529 306.59 261.681 306.187C260.832 305.784 259.882 305.647 258.954 305.794L256.471 306.187L252.238 306.497H249.307L246.703 306.806H244.92C244.375 306.806 243.833 306.89 243.313 307.054L243.256 307.073C242.524 307.304 241.855 307.7 241.298 308.229L241.016 308.497C240.9 308.607 240.798 308.731 240.713 308.866Z" fill="black" stroke="black"/>
<path d="M297.514 208.699C298.527 210.286 297.514 210.816 294.98 209.757C290.927 208.17 290.927 208.434 294.727 214.52C298.527 220.605 310.686 224.309 307.14 218.488C306.38 216.901 308.153 215.842 311.446 215.842C315.753 215.842 316.513 216.636 313.726 218.224C311.193 220.076 311.953 220.605 316.766 220.34C321.832 219.811 322.846 219.017 320.312 216.636C316.259 212.403 295.487 205.26 297.514 208.699Z" fill="black"/>
<path d="M262.673 395.919C264.16 398.229 266.143 400.045 266.969 400.045C267.795 400.045 267.96 400.87 267.299 401.86C266.804 402.85 268.125 402.52 270.439 401.035C272.752 399.384 274.899 396.579 275.395 394.599L276.386 390.968L273.247 394.599C269.447 399.219 267.299 399.384 264.656 395.094C263.499 393.279 262.012 391.793 261.186 391.793C260.525 391.793 261.186 393.609 262.673 395.919Z" fill="black"/>
<path d="M284.684 212.16C281.544 213.975 281.379 214.635 283.031 216.781C285.675 220.081 292.779 224.867 294.927 224.867C295.753 224.867 294.431 223.051 291.953 220.741C288.318 217.441 287.988 216.615 290.301 216.615C292.614 216.615 292.779 216.12 291.292 214.635C289.971 213.315 288.814 213.315 286.501 215.13C283.858 217.111 284.023 216.946 286.666 213.645C290.301 209.519 289.971 209.354 284.684 212.16Z" fill="black"/>
</g>
<defs>
<clipPath id="clip0_239_583">
<rect width="540" height="462" fill="white"/>
</clipPath>
</defs>
</svg>
